<svg xmlns="http://www.w3.org/2000/svg" version="1.1" xmlns:xlink="http://www.w3.org/1999/xlink" viewBox="0 0 12.092395714878544 12.222108809027775"><g transform="matrix(1,0,0,1,3.929309543812688,3.173189560495846)"><rect width="12.222108809027775" height="12.222108809027775" x="-3.994166090887304" y="-3.173189560495846" fill="#ede8e8"></rect><g><path d=" M -1.9994243808640295 1.3502720349774062 Q -2.016539207754315 1.3940451168944425 -2.040985636473646 1.4263618636810653 Q -2.0654320651929763 1.4586786104676879 -2.0994369253312315 1.4797420737863753 Q -2.1282598357837577 1.4985367494432114 -2.153280200115929 1.5048598316572444 Q -2.1783005644481 1.5111829138712771 -2.1997214343223943 1.502807573052627 Q -2.2211423041966882 1.4944322322339765 -2.222987378846287 1.4840473538265317 Q -2.2248324534958854 1.4736624754190872 -2.2179136936891743 1.4559669742185832 L -2.1997064310399344 1.4093998657962044 L -2.1893425316684754 1.404862290472502 L -2.158608240109705 1.4168790838210006 Q -2.1269426063824874 1.4292600224224836 -2.0958928663400815 1.4102622951031696 Q -2.0648431262976756 1.3912645677838553 -2.042630265865603 1.3344526955085532 Q -2.0200532601805454 1.2767094810648034 -2.0432453966065625 1.231671998808387 Q -2.0664375330325795 1.1866345165519707 -2.1223180631394345 1.164785801372883 Q -2.18564933059387 1.1400239241699164 -2.235728647981494 1.1596341758253534 Q -2.2858079653691186 1.1792444274807905 -2.3189451833907353 1.2639965648095202 L -2.340065608063854 1.3180144105794795 L -2.381976005643995 1.3016278741951637 L -2.3699592122954964 1.2708935826363936 Q -2.34519733509253 1.2075623151819583 -2.365213690072923 1.1530293386145738 Q -2.385230045053316 1.0984963620471895 -2.4457672860024084 1.0748269206031775 Q -2.503510500446158 1.05224991491812 -2.539237930366788 1.0667344152984064 Q -2.574965360287417 1.0812189156786927 -2.5924443324306874 1.1259233397641766 Q -2.607374287803064 1.1641083686705271 -2.5946719249644197 1.1975284222060232 Q -2.5819695621257748 1.2309484757415192 -2.543784533219424 1.245878431113896 L -2.508393530818416 1.2597159507273183 L -2.503855955494714 1.2700798500987773 L -2.521334927637984 1.314784274184261 Q -2.5286178326976803 1.3334111175532126 -2.5376652656117216 1.340073996635556 Q -2.5467126985257624 1.346736875717899 -2.569064910568504 1.3379973896462638 Q -2.5932798069481415 1.328529613068659 -2.6115878324847683 1.3025812759167292 Q -2.629895858021395 1.2766329387647994 -2.6367089597043263 1.2363889125564533 Q -2.6450206004711676 1.1944852536736903 -2.6436127162285774 1.160676706500535 Q -2.642204831985987 1.1268681593273797 -2.6258182956016713 1.0849577617472388 Q -2.606518597193477 1.0355966268195171 -2.5721319821149398 1.0039452334309074 Q -2.537745367036403 0.9722938400422974 -2.4957611613583865 0.962403113396292 Q -2.45377695568037 0.9525123867502867 -2.410935215931781 0.9692630683875876 Q -2.3615740810040595 0.9885627667957819 -2.337751810554623 1.0429732384959418 Q -2.3139295401051863 1.0973837101961017 -2.3235868909505135 1.1687681312881737 Q -2.2772497889801238 1.0859558557429039 -2.215714136462086 1.0590140022584218 Q -2.154178483944048 1.0320721487739397 -2.086190505647375 1.0586547522418301 Q -2.0386920550565484 1.077226160144055 -2.0111268062460246 1.123436624954679 Q -1.983561557435501 1.169647089765303 -1.9796582484277592 1.2296909418968083 Q -1.9757549394200176 1.2897347940283137 -1.9994243808640295 1.3502720349774062 M -1.8805398071259452 1.0299154444160719 L -1.8945041077726872 1.0221053030954939 L -1.8898760189541157 0.9318856777699172 L -2.3681533161050288 0.6643883375401178 L -2.44260290815731 0.715557256262804 L -2.4565672088040524 0.7077471149422259 L -2.3252592078518335 0.4729723103188761 Q -2.2925542410719126 0.41449680136064404 -2.252038395989277 0.37585787930994663 Q -2.2115225509066416 0.3372189572592492 -2.1682694833255947 0.32646385870882155 Q -2.125016415744548 0.3157087601583939 -2.081377976223479 0.3401154517852003 Q -2.0368667679119894 0.36501027724454294 -2.0168587784578453 0.4163028727920767 Q -1.9968507890037015 0.4675954683396103 -2.0133577837235013 0.5339846174930714 Q -1.958464379477657 0.46042026355515986 -1.8953600447187164 0.4367064925637807 Q -1.832255709959776 0.4129927215724015 -1.773780201001544 0.44569768835232226 Q -1.7257779175283683 0.4725450491418094 -1.7048971592838031 0.5243257785218792 Q -1.6840164010392378 0.5761065079019491 -1.6919733450634074 0.6415487499310562 Q -1.699930289087577 0.7069909919601632 -1.7380047280253952 0.7750669576130305 L -1.8805398071259452 1.0299154444160719 M -2.2914128055222056 0.525129966030583 L -2.317772032479157 0.5722594807133373 L -2.1100530603588696 0.6884353328569364 L -2.0812531642392376 0.6369419742220752 Q -2.0465956621291723 0.5749753901021577 -2.054614275163326 0.525805258467104 Q -2.06263288819748 0.47663512683205034 -2.109762402880234 0.4502758998750993 Q -2.2162401953116415 0.39072357230569144 -2.2914128055222056 0.525129966030583 M -2.0193761357057487 0.6348844660530062 L -2.0637963144665363 0.7143064259813513 L -1.8377491977474005 0.840733088608209 L -1.7899120821588599 0.7552017471469142 Q -1.7523257770535778 0.6879985502844684 -1.7624598823561002 0.6313434542231485 Q -1.7725939876586225 0.5746883581618286 -1.8223418087126408 0.5468647297072692 Q -1.880817317670873 0.5141597629273484 -1.9298391726380615 0.5383022096876903 Q -1.9788610276052498 0.5624446564480321 -2.0193761357057487 0.6348844660530062 M -1.1398422029379565 -0.03222682919022796 Q -1.191841258757402 0.024563118810154883 -1.2536862061469722 0.05064381056442596 Q -1.3155311535365424 0.07672450231869707 -1.3830813393260728 0.06165060435566422 Q -1.4506315251156032 0.046576706392631395 -1.5221721089602414 -0.018928597691605265 L -1.7736704501047937 -0.24921013060629282 L -1.857872027265708 -0.21648255196664107 L -1.8696725359411124 -0.22728755057847388 L -1.6893641216061517 -0.4242085390992818 L -1.6775636129307474 -0.413403540487449 L -1.7027626467146406 -0.326650968788633 L -1.4593771552844286 -0.1037978724195805 Q -1.3981620165307693 -0.04774694212069763 -1.3448336018642217 -0.03417011667611114 Q -1.2915051871976744 -0.020593291231524702 -1.246303273378666 -0.03886312941085568 Q -1.2011013595596576 -0.057132967590186656 -1.1639591768314823 -0.0976972161618887 Q -1.134245430648942 -0.1301486150192503 -1.122565553308395 -0.17029933687216064 Q -1.1108856759678476 -0.210450058725071 -1.1262987160467874 -0.2550699891992997 Q -1.1417117561257273 -0.2996899196735283 -1.1911263862039823 -0.34493585136057825 L -1.4618005539460666 -0.5927755070194942 L -1.5560073785476278 -0.5461592630857465 L -1.567807887223032 -0.5569642616975793 L -1.3996550963263834 -0.7406096779585574 L -1.3878545876509791 -0.7298046793467247 L -1.4137911532270853 -0.6437274200611482 L -1.1615552802903202 -0.4127705747332211 Q -1.090014696445682 -0.3472652706489845 -1.0690610671696807 -0.28130167902327097 Q -1.0481074378936794 -0.2153380873975574 -1.0679752925060952 -0.15217743229408404 Q -1.087843147118511 -0.08901677719061074 -1.1398422029379565 -0.03222682919022796 M -0.8088117744327016 -0.38489401990811034 L -0.8185068045204955 -0.397622193052626 L -0.7783080031958695 -0.47852371573337193 L -1.1103627837028105 -0.9144636459330351 L -1.1990367354664062 -0.8972029889748677 L -1.2087317655542 -0.9099311621193834 L -0.9963303762050941 -1.071716976709444 L -0.9866353461173003 -1.0589888035649284 L -1.0268341474419262 -0.9780872808841825 L -0.6947793669349851 -0.5421473506845194 L -0.6061054151713896 -0.5594080076426868 L -0.5964103850835957 -0.546679834498171 L -0.8088117744327016 -0.38489401990811034 M -0.8650483328518656 -0.7656858915350766 L -0.8109087969819531 -1.1500996148278206 L -0.8879920042473035 -1.134125286745331 L -0.8976870343350974 -1.1468534598898468 L -0.7258566968841353 -1.2777363660750645 L -0.7161616667963413 -1.2650081929305488 L -0.751130364040694 -1.2069462414215546 L -0.8026903498506786 -0.8521525438122619 L -0.36074271816043746 -0.7802408560043191 L -0.29426517313075473 -0.7969362447936374 L -0.2845701430429608 -0.7842080716491218 L -0.4142384069527146 -0.6854399526297212 L -0.8650483328518656 -0.7656858915350766 M 0.02622307558323972 -0.9596522368753314 L 0.019534885355705994 -0.9741873017695905 L 0.07639817581405825 -1.0443839270321276 L -0.1526723394789717 -1.542209899660501 L -0.2429765810749926 -1.544688598869259 L -0.2496647713025263 -1.5592236637635182 L 0.004698864347007448 -1.6762669927453582 Q 0.11189496794216813 -1.7255923956734194 0.19482305042488518 -1.7164172588493896 Q 0.27775113290760234 -1.7072421220253595 0.31662623860514205 -1.6227570573274788 Q 0.3396168925122892 -1.572792771753463 0.3233158394582559 -1.5185085597823054 Q 0.30701478640422275 -1.4642243478111476 0.2591158181130975 -1.4152147687816785 Q 0.2112168498219722 -1.3662051897522094 0.1367246422388944 -1.3319282148360991 L 0.07313373332651099 -1.302667382590639 L 0.1717845391826334 -1.0882751754003177 L 0.2720816378934574 -1.0903946069729888 L 0.2787698281209911 -1.0758595420787298 L 0.02622307558323972 -0.9596522368753314 M -0.05770398799961743 -1.5870095895845822 L 0.05097910319780555 -1.3508147850528722 L 0.12002066144553614 -1.3825836886336573 Q 0.1917875443609403 -1.4156066278821051 0.21761898636409305 -1.4671210589091266 Q 0.24345042836724584 -1.518635489936148 0.22004176257087782 -1.5695082170660548 Q 0.1907809303254178 -1.6330991259784382 0.13648847096652192 -1.6422412732515164 Q 0.08219601160762613 -1.651383420524594 0.004978479356874843 -1.6158524099408211 L -0.05770398799961743 -1.5870095895845822 M 0.6348259518241619 -1.2292914982813217 L 0.6304353648492127 -1.2446772951737612 L 0.6973494941798154 -1.305369133965541 L 0.5469718902878035 -1.8323326775315996 L 0.4581048260824545 -1.848569823202018 L 0.45371423910750525 -1.8639556200944578 L 0.7210424601136444 -1.940242068784201 Q 0.8220117522202797 -1.9690552958073053 0.8921262050579605 -1.943827067505012 Q 0.9622406578956413 -1.9185988392027187 0.9830959460266502 -1.8455163039636302 Q 0.9984630004389725 -1.7916660148400914 0.9737214353146044 -1.7398890416261552 Q 0.9489798701902363 -1.6881120684122193 0.8956713760085222 -1.6489814608514088 L 1.1539769621761433 -1.4325554361810804 L 1.2285582190428046 -1.4153613638249136 L 1.2329488060177538 -1.3999755669324738 L 1.0781292247875798 -1.355795285497047 L 0.810078509554268 -1.5954383827540095 L 0.7302646881747372 -1.5726622128214602 L 0.7980443746005164 -1.335143973294423 L 0.8814161766571347 -1.3162987452026211 L 0.8858067636320839 -1.3009129483101813 L 0.6348259518241619 -1.2292914982813217 M 0.7044018967493757 -1.8782978063306068 L 0.6476667707085044 -1.8621075168604815 L 0.7157208688202178 -1.6236276650276666 L 0.7782256686957539 -1.641464424613398 Q 0.8378456316539576 -1.6584779491413264 0.8670493151872769 -1.7037288592767672 Q 0.8962529987205962 -1.748979769412208 0.881160355994208 -1.8018684462299692 Q 0.8655188898959514 -1.8566803476592857 0.8186168240248752 -1.8770934860026478 Q 0.7717147581537992 -1.89750662434601 0.7044018967493757 -1.8782978063306068 M 1.6433778321191705 -1.4400539671733878 Q 1.5717919610494118 -1.4323427374929885 1.507914635665518 -1.451109391478187 Q 1.4440373102816242 -1.4698760454633852 1.3939259480020105 -1.510241270230272 Q 1.3438145857223966 -1.550606494997159 1.3123181549317198 -1.6095723736682015 Q 1.280821724141043 -1.668538252339244 1.2728962936361878 -1.7421126198276071 Q 1.264970863131333 -1.8156869873159702 1.2831868428057664 -1.8800078865984013 Q 1.3014028224801997 -1.944328785880832 1.3417680472470865 -1.9944401481604461 Q 1.3821332720139734 -2.0445515104400602 1.4405484763742509 -2.0764915151292738 Q 1.4989636807345283 -2.108431519818488 1.5705495518042871 -2.1161427494988874 Q 1.642135422874046 -2.123853979179287 1.7060127482579397 -2.1050873251940887 Q 1.7698900736418335 -2.08632067120889 1.8200014359214474 -2.0459554464420036 Q 1.870112798201061 -2.0055902216751162 1.902106353096389 -1.9466778932101878 Q 1.9340999079917172 -1.8877655647452594 1.942025338496572 -1.814191197256896 Q 1.9499507690014268 -1.740616829768533 1.9312376652223424 -1.6762423802799882 Q 1.912524561443258 -1.6118679307914432 1.8721593366763711 -1.5617565685118293 Q 1.8317941119094843 -1.5116452062322154 1.7733789075492068 -1.4797052015430014 Q 1.7149637031889293 -1.4477651968537872 1.6433778321191705 -1.4400539671733878 M 1.657907775693826 -1.4919083858830535 Q 1.7185569164612606 -1.4984415110289475 1.7608651208978734 -1.5351840726890955 Q 1.8031733253344862 -1.5719266343492435 1.822811954867133 -1.6323776412066935 Q 1.8424505843997796 -1.6928286480641432 1.833989651833786 -1.7713742565990174 Q 1.8236009118476924 -1.8678163329013313 1.7840201892635084 -1.9364721148844528 Q 1.7444394666793244 -2.005127896867574 1.6854717986785923 -2.0390073025671347 Q 1.6265041306778603 -2.0728867082666955 1.5598895006546125 -2.065710980647435 Q 1.4992403598871782 -2.059177855501541 1.4558843570351492 -2.0228253175338162 Q 1.4125283541831202 -1.986472779566092 1.3923926005458225 -1.925968222502528 Q 1.3722568469085248 -1.8654636654389642 1.3807177794745185 -1.7869180569040901 Q 1.391106519460612 -1.6904759806017762 1.431237916355561 -1.6213766247201176 Q 1.47136931325051 -1.5522772688384592 1.530834105355893 -1.5184514133450122 Q 1.5902988974612762 -1.4846255578515652 1.657907775693826 -1.4919083858830535 M 2.1199673279552917 -1.487498033375736 L 2.1211535948093543 -1.503453996867514 L 2.204896327121638 -1.5373384296482655 L 2.2455259668732923 -2.0838301792416614 L 2.1677145688313235 -2.1297255639197994 L 2.1689008356853865 -2.1456815274115777 L 2.472064142029168 -2.1231424571843824 Q 2.583755886471614 -2.114838589205942 2.659646930755489 -2.0700887356027975 Q 2.7355379750393647 -2.0253388819996534 2.7718821212163967 -1.9544491575068712 Q 2.8082262673934286 -1.883559433014089 2.80185008305284 -1.7977961292457825 Q 2.7960670321392835 -1.7200108072233649 2.764247992973899 -1.656194283136012 Q 2.732428953808514 -1.5923777590486587 2.680503638911873 -1.5481057399747031 Q 2.6285783240152325 -1.5038337209007473 2.5612567731545353 -1.481764312442192 Q 2.493935222293838 -1.4596949039836367 2.4161499002714204 -1.4654779548971932 L 2.1199673279552917 -1.487498033375736 M 2.4410606613259516 -2.070295657997627 L 2.3503111189664643 -2.0770425507301096 L 2.3095331958580516 -1.5285563057002416 L 2.4152414539910807 -1.5206972877920748 Q 2.495021271449971 -1.5147659535217604 2.5543481376151242 -1.5439476764150712 Q 2.613675003780277 -1.5731293993083824 2.6491493962659014 -1.632161741950157 Q 2.6846237887515256 -1.6911940845919318 2.690851689735356 -1.7749628929237662 Q 2.697005449040807 -1.8577344535373643 2.6702260008150525 -1.9223978987960586 Q 2.643446552589298 -1.9870613440547527 2.585633882700896 -2.0254533380167064 Q 2.527821212812494 -2.06384533197866 2.4410606613259516 -2.070295657997627 M 3.2413285126705667 -1.3199791293901373 Q 3.1668414250106744 -1.3394899923117916 3.114927032991881 -1.3820328636455301 Q 3.063012640973088 -1.424575734979269 3.0448418260514383 -1.491359501607718 Q 3.0266710111297885 -1.5581432682361671 3.05124963065447 -1.651977651392135 L 3.137654880736082 -1.9818490396002275 L 3.0694338471830287 -2.0410680448346388 L 3.0734880524654504 -2.0565458812314996 L 3.3317744473380624 -1.988891330581088 L 3.3277202420556407 -1.9734134941842274 L 3.2392281820904794 -1.9552433174343355 L 3.155610198140533 -1.6360129417490845 Q 3.1345790082379708 -1.5557216654403698 3.1474411826205286 -1.5022163902784507 Q 3.1603033570030865 -1.4487111151165317 3.197546262661275 -1.4172473903189926 Q 3.2347891683194634 -1.3857836655214535 3.2879942309336716 -1.371847334863129 Q 3.3305582810250387 -1.3606982703364694 3.3715221349379805 -1.3690924750396638 Q 3.412485988850923 -1.3774866797428582 3.4447672912352894 -1.41193109171881 Q 3.477048593619656 -1.4463755036947619 3.4940255782397966 -1.511188943606616 L 3.5870189119053433 -1.8662118159596073 L 3.501845901520323 -1.927803684756984 L 3.505900106802745 -1.9432815211538443 L 3.7467739357288887 -1.8801879514461575 L 3.742719730446467 -1.8647101150492968 L 3.654481058311457 -1.8475073030742086 L 3.567822420399694 -1.5166685500913122 Q 3.543243800875013 -1.4228341669353444 3.4946664463352013 -1.3735341605873386 Q 3.4460890917953892 -1.324234154239333 3.380952346062924 -1.312351210353908 Q 3.3158156003304584 -1.300468266468483 3.2413285126705667 -1.3199791293901373 M 4.00355019186902 -1.0425493111544508 Q 3.9099514330125618 -1.0855408491652105 3.8593275270146736 -1.155011851328106 Q 3.808703621016786 -1.2244828534910015 3.8019155934601905 -1.3079329744129684 Q 3.795127565903595 -1.3913830953349353 3.833945168185155 -1.4758945960499896 Q 3.8639975054353948 -1.5413228546680964 3.916155016898205 -1.5877942867313202 Q 3.9683125283610154 -1.634265718794544 4.033255408992823 -1.6594584212149426 Q 4.098198289624631 -1.6846511236353412 4.167343732743694 -1.6842540142443818 Q 4.236489175862758 -1.6838569048534224 4.301008708666724 -1.6542219611761027 Q 4.347353725187883 -1.6329348889571826 4.376446070458815 -1.6124193961130704 Q 4.405538415729748 -1.5919039032689581 4.426145743102949 -1.5708839589651844 Q 4.446753070476149 -1.5498640146614107 4.466353883251199 -1.5254548332216853 L 4.397510182156282 -1.3611972768671796 L 4.381153117501755 -1.3687103611797395 L 4.37271220080567 -1.5156448735494674 Q 4.351832968874977 -1.5516456745681162 4.331434338288236 -1.5731199817789603 Q 4.311035707701496 -1.5945942889898044 4.280139030020724 -1.6087856704690842 Q 4.217436948845038 -1.637585827000564 4.152430860442198 -1.6278283442021106 Q 4.087424772039357 -1.6180708614036572 4.032295417013517 -1.5735146697527236 Q 3.977166061987675 -1.52895847810179 3.942522395435315 -1.453534235528139 Q 3.903704793153755 -1.3690227348130848 3.9036642578858567 -1.2958619641986902 Q 3.903623722617958 -1.2227011935842957 3.9362686899010573 -1.169191324297543 Q 3.9689136571841566 -1.11568145501079 4.026163383475 -1.0893856599168301 Q 4.073417125810299 -1.0676811941249902 4.111520402233163 -1.0655858836842955 Q 4.149623678656026 -1.0634905732436009 4.182998479337436 -1.0690693436705079 L 4.29063118905188 -1.1428812654685896 L 4.306079527892266 -1.1357855747289496 L 4.227974452882463 -0.9944894415273899 Q 4.178807858456047 -0.9928627908247817 4.1275280577281475 -1.0010103080728163 Q 4.076248257000249 -1.009157825320851 4.00355019186902 -1.0425493111544508 M 4.45491214703713 -0.8108102876640811 L 4.463822205315401 -0.8240997895914602 L 4.569987331927659 -0.8010788015283208 L 4.875713706600839 -1.2570748364115139 L 4.744479875067972 -1.3450616619094418 L 4.601419035264042 -1.2591803710796308 L 4.588129533336664 -1.268090429357902 L 4.702846533669406 -1.4391927666729067 L 5.196219292723352 -1.1084068530920888 L 5.08150229239061 -0.9373045157770838 L 5.068212790463231 -0.9462145740553549 L 5.094159894532132 -1.110615753462431 L 4.962095469128803 -1.199159457602751 L 4.656369094455623 -0.743163422719558 L 4.718814523546986 -0.6531380463771317 L 4.709904465268715 -0.6398485444497526 L 4.45491214703713 -0.8108102876640811 M 4.920531634699683 -0.477069492825647 L 4.931029518980426 -0.48914402907463456 L 5.019156227958347 -0.46552871275829233 L 5.378708764573817 -0.8790815792861173 L 5.343071476999615 -0.9630695768473976 L 5.353569361280359 -0.9751441130963852 L 5.555063184935339 -0.7999606691614753 L 5.544565300654595 -0.7878861329124878 L 5.457193250192236 -0.8108453314612836 L 5.097640713576766 -0.3972924649334586 L 5.132523342635407 -0.31396058513972486 L 5.122025458354663 -0.3018860488907372 L 4.920531634699683 -0.477069492825647 M 5.44805914815987 0.05112795900204847 Q 5.400789369507266 -0.00318196666659748 5.379647865582479 -0.06631307478136306 Q 5.3585063616576925 -0.12944418289612863 5.362955343452552 -0.1936369127102517 Q 5.367404325247412 -0.2578296425243748 5.397758088096592 -0.3173917872212856 Q 5.428111850945772 -0.3769539319181964 5.483930385660769 -0.4255367599778169 Q 5.539748920375766 -0.4741195880374374 5.602928918400366 -0.4959665065755663 Q 5.666108916424965 -0.5178134251136952 5.730301646239088 -0.5133644433188351 Q 5.794494376053211 -0.5089154615239752 5.8541054106599555 -0.47926711328813715 Q 5.9137164452667 -0.44961876505229925 5.960986223919304 -0.39530883938365324 Q 6.008256002571907 -0.3409989137150073 6.029397506496695 -0.27786780560024166 Q 6.050539010421481 -0.21473669748547614 6.0460900286266215 -0.15054396767135303 Q 6.041641046831761 -0.08635123785723003 6.011615546334335 -0.02641194089873139 Q 5.98159004583691 0.033527356059767255 5.925771511121912 0.08211018411938775 Q 5.869952976406915 0.13069301217900825 5.806444716030562 0.15216277845554932 Q 5.742936455654208 0.1736325447320904 5.678743725840085 0.16918356293723041 Q 5.614550996025962 0.16473458114237033 5.554939961419217 0.13508623290653243 Q 5.495328926812474 0.10543788467069448 5.44805914815987 0.05112795900204847 M 5.498904868388819 0.03338781429014204 Q 5.53895287530283 0.07940039020385598 5.593290756405837 0.093089607757667 Q 5.647628637508843 0.10677882531147809 5.7084479421442476 0.08831231011055835 Q 5.769267246779653 0.0698457949096386 5.828857304110528 0.017980343332476223 Q 5.902024842858565 -0.045702552907837146 5.935703130276531 -0.11743833865381548 Q 5.969381417694496 -0.1891741243997938 5.96344473992856 -0.25692186131478933 Q 5.957508062162625 -0.3246695982297848 5.913520907027563 -0.3752080012825526 Q 5.873472900113551 -0.42122057719626654 5.818855646568625 -0.43599236162500743 Q 5.764238393023699 -0.45076414605374826 5.703090826036539 -0.43267478311441643 Q 5.64194325904938 -0.4145854201750845 5.5823532017185045 -0.3627199685979221 Q 5.509185662970467 -0.2990370723576088 5.475458485642668 -0.22659587199828843 Q 5.4417313083148695 -0.15415467163896807 5.447996248432559 -0.08602978246238474 Q 5.454261188550249 -0.017904893285801415 5.498904868388819 0.03338781429014204 M 5.758546284683747 0.4108870764963506 L 5.772341555464292 0.40278210863142816 L 5.847861132231826 0.4523582472956341 L 6.318624747617944 0.175776218905156 L 6.314312494092264 0.08552432435700674 L 6.32810776487281 0.07741935649208431 L 6.4076377620473615 0.2127854510261878 L 6.1955521467116315 0.7815997368591519 L 6.5542291870058165 0.5708705723711684 L 6.5356794289029585 0.4623076575506579 L 6.549474699683504 0.45420268968573546 L 6.67763450404759 0.6723404089031125 L 6.663839233267044 0.680445376768035 L 6.589688421414852 0.6312248820360554 L 6.063743722906552 0.9402267818862233 L 6.041961621769573 0.903151991663507 L 6.272174561767491 0.28425377526801987 L 5.882458162217078 0.5132191174520787 L 5.901007920319936 0.6217820322725893 L 5.88721264953939 0.6298870001375116 L 5.758546284683747 0.4108870764963506 M 6.22370667278244 1.3260835832018456 Q 6.200586432690018 1.267479364086932 6.195418177852974 1.2216804651706985 Q 6.19024992301593 1.175881566254465 6.194396681036553 1.1237202357699154 L 6.344214042195862 1.0538649690016828 L 6.350085849203461 1.0687485802054704 L 6.268141608590331 1.1580522275572853 Q 6.254009641112589 1.201252777266844 6.254394296900659 1.2376512942685667 Q 6.25477895268873 1.2740498112702896 6.267256542579878 1.3056774850783381 Q 6.288541842982425 1.359630575692068 6.328742709911687 1.37978349851075 Q 6.368943576840949 1.3999364213294319 6.417315313253258 1.380853048554735 Q 6.455454566962964 1.3658065430977624 6.471455819766227 1.3396061631629967 Q 6.487457072569491 1.3134057832282315 6.492201413988021 1.2722962803790798 Q 6.496945755406552 1.2311867775299281 6.501681262900035 1.1723431290300332 Q 6.507252793111863 1.093819514422078 6.528190715227692 1.0447088901390222 Q 6.549128637343522 0.9955982658559663 6.612383984959618 0.9706430860736703 Q 6.64587211016814 0.9574315203065724 6.683456960040632 0.9614163741385545 Q 6.721041809913124 0.9654012279705366 6.756702429108645 0.9835828186213024 Q 6.792363048304167 1.0017644092720681 6.820825213213027 1.0303109531732277 Q 6.849287378121887 1.0588574970743874 6.8639668956408855 1.0960665250838562 Q 6.881215328725707 1.1397871329949822 6.886029351480076 1.181963254022412 Q 6.890843374234445 1.2241393750498422 6.885988152048471 1.2690551497567848 L 6.740821919390345 1.3370754768351427 L 6.734950112382746 1.3221918656313552 L 6.815400889533378 1.234552419855727 Q 6.826912918024098 1.1956104989987781 6.827603714339354 1.167387763474899 Q 6.828294510654609 1.13916502795102 6.816183908701436 1.1084675798432082 Q 6.800403427368513 1.068467874733029 6.762967725829363 1.0525990924775557 Q 6.725532024290212 1.0367303102220824 6.684602093479796 1.05287777949298 Q 6.639021034168197 1.070860188453752 6.624167846669804 1.1095077345742705 Q 6.609314659171412 1.1481552806947888 6.6045026165461325 1.2231542423260842 Q 6.599545347517764 1.2896104345415607 6.589390390011501 1.3360795300572472 Q 6.5792354325052385 1.3825486255729338 6.55551075521895 1.4123335158306045 Q 6.531786077932662 1.4421184060882752 6.48434456722059 1.4608347909249972 Q 6.440623959309463 1.4780832240098196 6.399796075341443 1.472690275772183 Q 6.358968191373422 1.4672973275345464 6.324067059764449 1.4455910839071207 Q 6.289165928155477 1.4238848402796949 6.263409071290482 1.392658500045268 Q 6.237652214425488 1.361432159810841 6.22370667278244 1.3260835832018456" fill="#574848" fill-rule="nonzero"></path></g><g><path d=" M -2.355977058947544 3.8144729165085542 L -2.86443985707009 3.936497475206347 L -2.879141611130065 3.875236897119293 L -2.257784319104234 3.7261191059395466 L -2.245602865740255 3.776877870640248 L -2.66582064910579 4.309033124812709 L -2.1486063398279507 4.18490831553492 L -2.1339045857679757 4.246168893621974 L -2.754386726678277 4.3950766597437205 L -2.7680383554482537 4.338191837234314 L -2.355977058947544 3.8144729165085542 M -2.672783085206356 4.625312391222758 L -2.070891483428744 4.410725579629919 L -2.0497350372153655 4.47006700515729 L -2.6516266389929775 4.684653816750129 L -2.672783085206356 4.625312391222758 M -2.5698943632804485 4.906278960977291 L -1.9910302478129833 4.635654986015593 L -1.8766820893784633 4.880245457339875 Q -1.8591487050851703 4.917749329609598 -1.8601553348673356 4.955972839344859 Q -1.8611619646495008 4.994196349080122 -1.876796190658352 5.029820161019668 Q -1.892430416667203 5.065443972959214 -1.9187268405391165 5.093136988171514 Q -1.94502326441103 5.120830003383814 -1.9784506288253483 5.136457585036531 Q -2.0200310089504763 5.1558967719704 -2.064152209947362 5.157150615099499 Q -2.108273410944248 5.158404458228599 -2.147078958395842 5.141277228826793 Q -2.1858845058474357 5.124149999424986 -2.2123332269077682 5.088827129294252 L -2.3694039254919232 5.3351275873658635 L -2.3995156072130137 5.2707187632504695 L -2.2495604037850243 5.034699342513806 L -2.329604114689188 4.863486012586809 L -2.5432131263123936 4.9633500709529565 L -2.5698943632804485 4.906278960977291 M -2.27905541728217 4.839854059843675 L -2.190626174759475 5.029004024334452 Q -2.174617432578642 5.063246690319851 -2.1440495200722136 5.079754346876714 Q -2.1134816075657845 5.096262003433576 -2.0764280696722937 5.095828610337637 Q -2.0393745317788023 5.095395217241698 -2.0051318657934027 5.079386475060866 Q -1.9700738982369228 5.062996572351918 -1.947748021190712 5.0331858324396395 Q -1.9254221441445019 5.003375092527361 -1.9194655759589205 4.968301679584642 Q -1.913509007773339 4.9332282666419225 -1.9287554288979418 4.900616203798685 L -2.014897708251947 4.716358048734393 L -2.27905541728217 4.839854059843675 M -1.9405398875763729 6.007827487143183 L -1.51006092424602 5.7157728653170174 L -1.9743223296865962 5.7512390099953015 L -1.99655486145191 5.718468985105101 L -1.7925151346280732 5.299444594552887 L -2.222994097958426 5.591499216379053 L -2.2583640348577885 5.539365085871918 L -1.7295749968568361 5.180612868749811 L -1.6931944903317775 5.234236545842864 L -1.9151904175509877 5.6861071670366785 L -1.4122561343882685 5.648330496728118 L -1.3763809126760578 5.701209400528213 L -1.9051699506770103 6.05996161765032 L -1.9405398875763729 6.007827487143183 M -1.1239260415009809 5.978461073068927 L -1.087450657185073 6.017050661548294 L -1.3694569190012962 6.648939669441642 L -1.415205706109384 6.600539168637013 L -1.3268810741542014 6.403119211717806 L -1.5240954402012283 6.194473809600555 L -1.7255555862210061 6.272200636151559 L -1.771922600181906 6.223146074525245 L -1.1239260415009809 5.978461073068927 M -1.300799358606564 6.3586517616661995 L -1.159630450147535 6.048123438828352 L -1.4788486922164188 6.170282245021158 L -1.300799358606564 6.3586517616661995 M -1.2251617305192029 6.772410235895012 L -0.820754991221414 6.277661623758979 L -0.7719769590389883 6.317532710732 L -1.1410693070178153 6.769077922935027 L -0.8553694042350358 7.002608575205581 L -0.8906837955539977 7.045811975138587 L -1.2251617305192029 6.772410235895012 M 0.0555436565069134 7.016392241728741 Q 0.051208437624135295 6.996453689192551 0.041408730674413086 6.97707359002615 Q 0.03160902372469088 6.957693490859747 0.016344828708025005 6.938871845063134 Q 0.001080633691358912 6.92005019926652 -0.018688349526458148 6.902837709541507 Q -0.03845733274427521 6.885625219816495 -0.06360806745910175 6.87159380708276 Q -0.13670239022406627 6.830815013825342 -0.18645776872852082 6.839642658464682 Q -0.23621314723297543 6.848470303104022 -0.26296052775665774 6.89641389115416 Q -0.2813767569696849 6.92942423046737 -0.2757881270933004 6.9572761552860385 Q -0.27019949721691594 6.985128080104707 -0.24219446170296777 7.016210679511168 Q -0.21418942618901954 7.047293278917628 -0.16775982128688066 7.089685398334229 Q -0.1150425327060352 7.135585370934263 -0.08146130366936988 7.176992991686813 Q -0.047880074632704606 7.218400612439363 -0.040744322634900465 7.261028579121177 Q -0.033608570637096324 7.3036565458029905 -0.06167139610456629 7.353958015232644 Q -0.08315699685309796 7.392470077764722 -0.11387558491547811 7.412433503008247 Q -0.1445941729778582 7.432396928251771 -0.18184038816266263 7.436351603258298 Q -0.21908660334746705 7.440306278264824 -0.2610692839110545 7.428736186100291 Q -0.30305196447464194 7.4171660939357595 -0.3470657502255884 7.392611121651723 Q -0.39029357551669647 7.368494631015616 -0.424942039787346 7.337312762507049 Q -0.4595905040579956 7.306130893998484 -0.485092887672313 7.268715109495306 Q -0.5105952712866304 7.231299324992129 -0.5259008715428025 7.186689924628547 L -0.4733988015164956 7.157237036095286 Q -0.4672351857381517 7.181287396602707 -0.4540806623911974 7.206661468320003 Q -0.44092613904424294 7.232035540037297 -0.4215211671705063 7.257289640032734 Q -0.4021161952967697 7.28254374002817 -0.37593129041230156 7.304881505274303 Q -0.3497463855278333 7.327219270520437 -0.31830796713430015 7.344758536437605 Q -0.2515013280480422 7.382029476511589 -0.2005752751199158 7.378492580533238 Q -0.1496492221917895 7.374955684554888 -0.12290184166810714 7.32701209650475 Q -0.10360864915922152 7.292429836271864 -0.11085193652521708 7.261078324535847 Q -0.11809522389121274 7.2297268127998295 -0.14836713794865586 7.195318365881976 Q -0.17863905200609886 7.160909918964121 -0.22664057782791436 7.117640836251663 Q -0.277347463841154 7.071831866487649 -0.3082233326863952 7.032964132786654 Q -0.3390992015316363 6.994096399085659 -0.3440135764039557 6.955799481199041 Q -0.3489279512762751 6.917502563312424 -0.32393449734430957 6.872702817101639 Q -0.29499470858098115 6.82082942675231 -0.2495000786554561 6.799318879387365 Q -0.20400544872993093 6.777808332022421 -0.1489013837928096 6.784331715148186 Q -0.0937973188556882 6.79085509827395 -0.03563624482765193 6.823302740220713 Q 0.0013038967847496252 6.843911377673386 0.028969719752874323 6.869136508782983 Q 0.05663554272099902 6.894361639892581 0.07585850892269552 6.9236365450232285 Q 0.09508147512439191 6.952911450153877 0.1068212844254528 6.987286832007388 L 0.0555436565069134 7.016392241728741 M 0.025200599688806155 7.573757560180066 L 0.28500940882803966 6.989959322178569 L 0.34256698158875065 7.015574275192296 L 0.08275817244951719 7.599372513193794 L 0.025200599688806155 7.573757560180066 M 0.5264830672056076 7.219912228077243 L 0.3660839753063366 7.717603438887611 L 0.3061211788231598 7.698278247092518 L 0.5021338384591021 7.090084168477439 L 0.5518172984023056 7.106096470250517 L 0.787562292951811 7.7418609687441435 L 0.9507221265360953 7.235603644150466 L 1.010684923019272 7.254928835945559 L 0.8149483375518312 7.862266303182306 L 0.7592685979603099 7.84432148222972 L 0.5264830672056076 7.219912228077243 M 1.3357975504453772 7.968962223914899 Q 1.2726860595692107 7.958954740745412 1.2227625003188334 7.923245487998063 Q 1.1728389410684559 7.887536235250714 1.1401681246654396 7.83497096386779 Q 1.1074973082624233 7.782405692484867 1.0947402293382136 7.722063174826739 Q 1.0819831504140036 7.661720657168611 1.0915677821819632 7.601275849005522 Q 1.101716215818626 7.537275463891663 1.1325854297749358 7.4833950720063065 Q 1.1634546437312456 7.429514680120951 1.2096135135485087 7.391271788792065 Q 1.255772383365772 7.3530288974631794 1.313193601175421 7.33570799260065 Q 1.3706148189850706 7.31838708773812 1.433726309861237 7.328394570907607 Q 1.5270602048189477 7.343194369961074 1.5796663544180891 7.390719553015458 Q 1.6322725040172306 7.438244736069843 1.6527693258636398 7.504370754354604 L 1.599694820209914 7.528759621684037 Q 1.5787751469619773 7.4653002861123525 1.5324776398959576 7.429710388114861 Q 1.4861801328299382 7.394120490117369 1.4239575361914643 7.384253957415058 Q 1.3715127761676078 7.375937879851682 1.3257665381978179 7.391465088603139 Q 1.2800203002280282 7.406992297354598 1.243877976525097 7.439533539453702 Q 1.2077356528221657 7.472074781552807 1.1847096289022259 7.51671954297493 Q 1.161683604982286 7.561364304397054 1.153649428353261 7.612031275945526 Q 1.1451924003227085 7.665364930207075 1.155429435082649 7.71573978126714 Q 1.1656664698425894 7.766114632327206 1.1927061122494125 7.808218910476951 Q 1.2197457546562356 7.850323188626697 1.2595447892056881 7.8780483008705 Q 1.2993438237551405 7.905773413114304 1.3491219010659194 7.913666639276152 Q 1.406900026515931 7.922828419642584 1.463036782485311 7.902114484013779 Q 1.519173538454691 7.881400548384974 1.5758695648203522 7.828426114982206 L 1.5654392302493374 7.8942042885714505 Q 1.45846495524694 7.98841338838517 1.3357975504453772 7.968962223914899 M 1.580750576792026 7.7344306591232534 L 1.4403052872366133 7.712160485309465 L 1.4479166124641107 7.6641601964740715 L 1.6408066620433797 7.694746447851236 L 1.5916149489989995 8.004970536805914 L 1.539170188975143 7.996654459242537 L 1.580750576792026 7.7344306591232534 M 2.341405853008218 7.387348281684001 L 2.3374450625344476 8.026336006244359 L 2.2753462554997084 8.025951084353245 L 2.277198343439556 7.727156824417979 L 1.8983056222565837 7.724808243024377 L 1.8964535343167361 8.023602502959642 L 1.8334547445713487 8.023212002490398 L 1.8374155350451191 7.384224277930041 L 1.9004143247905063 7.3846147783992855 L 1.898651494100772 7.669009314964177 L 2.2775442152837444 7.671357896357779 L 2.2793070459734786 7.386963359792888 L 2.341405853008218 7.387348281684001 M 3.3096079529705724 7.887319024450244 L 2.9320043724782603 7.619707391669855 Q 2.886016590193438 7.586589815059786 2.8573929121547716 7.562427705144906 Q 2.8287692341161055 7.538265595230024 2.814435982453195 7.516785595305265 Q 2.8001027307902837 7.495305595380506 2.7955690770796684 7.472348984480108 Q 2.7878967400309342 7.433499335264052 2.802542989118926 7.398498479736616 Q 2.8171892382069177 7.363497624209179 2.8492867771893464 7.337893708663477 Q 2.881384316171775 7.312289793117774 2.9255316448263846 7.303571228289667 Q 2.9670301337617175 7.295375777351246 3.003192127942512 7.304288418759279 Q 3.0393541221233065 7.313201060167313 3.0642716425730416 7.33717770869535 Q 3.0891891630227772 7.361154357223387 3.0965127574783873 7.398238113293258 Q 3.1043594658236833 7.437970709082407 3.0880345092377883 7.4737617804895145 Q 3.0717095526518934 7.509552851896622 3.0412685409868048 7.5435447598867 Q 3.010827529321716 7.577536667876778 2.9729686574336256 7.61345220517418 Q 2.9416502442405856 7.645323932379809 2.916158169420926 7.676503719444331 Q 2.8906660946012663 7.707683506508852 2.878587044629411 7.739425222779045 Q 2.8665079946575553 7.7711669390492375 2.873657217816603 7.807367748546017 Q 2.8813295548653373 7.846217397762073 2.908721543737787 7.868787985827332 Q 2.936113532610237 7.89135857389259 2.972809730770999 7.8983309508578765 Q 3.0095059289317616 7.905303327823163 3.0457067384285414 7.8981541046641155 Q 3.0933858533755196 7.88873805464976 3.129287825685442 7.859171969615424 Q 3.165189797995364 7.829605884581088 3.1876248300800456 7.785269084568466 Q 3.210059862164727 7.740932284555843 3.2166295811594527 7.688261407476281 Q 3.2231993001541785 7.635590530396719 3.212213908470764 7.57996489629191 L 3.263424809710111 7.569851361091307 Q 3.2766770282488333 7.636955300646314 3.2670820017160027 7.699856158874435 Q 3.2574869751831725 7.762757017102557 3.228680310654861 7.814315125861057 Q 3.1998736461265502 7.865873234619557 3.15407380012577 7.9010635615050075 Q 3.10827395412499 7.936253888390458 3.0491165337278137 7.947936765260121 Q 2.994373846196098 7.958747785646974 2.9441885276295316 7.946182902027446 Q 2.8940032090629657 7.933618018407919 2.859575372831482 7.9009696403101 Q 2.8251475365999985 7.86832126221228 2.815034001399394 7.817110360972934 Q 2.805617951385039 7.769431246025955 2.8210710514881234 7.729225441753387 Q 2.8365241515912074 7.689019637480819 2.866616420663172 7.653261836344557 Q 2.896708689735136 7.617504035208294 2.9313845179239824 7.584051876243325 Q 2.966768921389359 7.5495423994087005 2.9936670566717973 7.520837080766894 Q 3.0205651919542356 7.492131762125087 3.0336032840571825 7.465246252006901 Q 3.04664137616013 7.438360741888715 3.0412358659667036 7.410989398122858 Q 3.03443538540078 7.376554481772263 3.0044706523670532 7.35953758504526 Q 2.9745059193333265 7.342520688318257 2.934773323544178 7.350367396663553 Q 2.9056360866321356 7.356121649450103 2.8851206738836086 7.37301655518401 Q 2.8646052611350816 7.389911460917916 2.855371602359628 7.4128348015474685 Q 2.846137943584174 7.43575814217702 2.850845968591352 7.45959769965051 Q 2.853810280632908 7.474607791393077 2.8640997222040454 7.489547332622785 Q 2.874389163775182 7.5044868738524935 2.8994921456117613 7.5247573647916 Q 2.9245951274483404 7.545027855730706 2.970408538436601 7.577262485767682 L 3.389073144548869 7.871625607759652 L 3.3096079529705724 7.887319024450244 M 4.219494997882862 7.394760195612371 Q 4.237578842939345 7.438899345445293 4.229252852832839 7.482673657418714 Q 4.2209268627263326 7.526447969392135 4.191052127658963 7.561543912243901 Q 4.161177392591593 7.596639855095669 4.116205428610881 7.615064904775859 L 3.8372126891009044 7.729368453717781 L 3.5949574062687706 7.138070408786189 L 3.8797798448132843 7.021378427478316 Q 3.9214205522028327 7.004318196292955 3.960860191125445 7.013933802444102 Q 4.000299830048057 7.023549408595248 4.030699697813832 7.051457705566283 Q 4.061099565579606 7.079366002537317 4.076453773646431 7.116842639187912 Q 4.094537618702914 7.160981789020833 4.087405844779383 7.207670950511522 Q 4.080274070855852 7.254360112002211 4.047805493483445 7.289059845191559 Q 4.104748839725424 7.283237017805656 4.151032768533658 7.311932146905807 Q 4.197316697341892 7.340627276005958 4.219494997882862 7.394760195612371 M 4.157103552053007 7.408650749498386 Q 4.144820185599547 7.378669440177911 4.12108841821182 7.358727882649602 Q 4.097356650824095 7.338786325121293 4.067971373909405 7.332345983465213 Q 4.038586096994716 7.3259056418091335 4.0094376018220315 7.337847803638887 L 3.7829121536228865 7.4306554612872535 L 3.8746961974001315 7.654682467043026 L 4.09539194656474 7.564263241760609 Q 4.125373255885215 7.551979875307149 4.143041978320716 7.526261472411611 Q 4.1607107007562165 7.500543069516072 4.1648782073194885 7.469171157093571 Q 4.16904571388276 7.43779924467107 4.157103552053007 7.408650749498386 M 3.67406787866028 7.164987748141932 L 3.7634634900715747 7.3831850548631675 L 3.966670142132572 7.2999311266786036 Q 3.9958186373052564 7.28798896484885 4.011992333757029 7.263369378274622 Q 4.028166030208801 7.238749791700394 4.03125491786224 7.208306093287349 Q 4.034343805515679 7.177862394874304 4.022742848309633 7.149546713849411 Q 4.010459481856173 7.119565404528936 3.9879017332399447 7.10011545652471 Q 3.965343984623717 7.080665508520485 3.9375491335544215 7.0745461740766356 Q 3.909754282485126 7.068426839632786 3.882271415608024 7.079686592215125 L 3.67406787866028 7.164987748141932 M 4.48026365300874 7.445904743956535 L 4.159334582441966 6.893342049174172 L 4.392811777420429 6.757738216540324 Q 4.428611613983794 6.7369456288698 4.466773634747876 6.7345560324181495 Q 4.504935655511959 6.732166435966498 4.5418064042369135 6.744577434655616 Q 4.578677152961867 6.756988433344734 4.6085946459992115 6.780723399330816 Q 4.638512139036555 6.804458365316898 4.657044662829848 6.836366915297288 Q 4.680097314377602 6.8760580384436265 4.685261871599079 6.919893866811597 Q 4.690426428820556 6.963729695179566 4.676810690120269 7.0039021255223455 Q 4.663194951419982 7.044074555865126 4.630358727977889 7.07355374225249 L 4.8896270015376455 7.208146024071855 L 4.82814467352665 7.2438550333321015 L 4.579748354488412 7.115437749883752 L 4.416314318003487 7.2103604327274455 L 4.534741665170381 7.4142638496753035 L 4.48026365300874 7.445904743956535 M 4.388289525925826 7.162108479098563 L 4.568845223375837 7.057241515195054 Q 4.601532030672822 7.038256978626316 4.615261713652002 7.006344664305803 Q 4.628991396631181 6.974432349985289 4.625271291934063 6.937563483430397 Q 4.621551187236945 6.900694616875504 4.602566650668206 6.868007809578519 Q 4.583130101324022 6.834542744964939 4.551455617346637 6.814950602030427 Q 4.519781133369252 6.7953584590959135 4.484317483132379 6.792538084674529 Q 4.448853832895507 6.789717710253145 4.417723540231712 6.807798221270991 L 4.2418373866812695 6.909953108521823 L 4.388289525925826 7.162108479098563 M 5.277369035265966 6.926053005185053 Q 5.224445069366297 6.9679493514869755 5.16464170524713 6.980855460119338 Q 5.104838341127963 6.993761568751702 5.04502079000617 6.981999635331056 Q 4.985203238884377 6.970237701910412 4.932236711976829 6.938129922053312 Q 4.879270185069282 6.906022142196211 4.841284164422205 6.858037746447178 Q 4.801622289923051 6.807936392062158 4.783232754069954 6.748456332621134 Q 4.764843218216856 6.688976273180112 4.768740217686028 6.627923686051167 Q 4.772637217155199 6.566871098922224 4.799202813208174 6.5119786440094565 Q 4.825768409261149 6.457086189096689 4.875869763646168 6.417424314597536 Q 4.928793729545838 6.3755279682956125 4.989155711615697 6.363327512541912 Q 5.049517693685556 6.351127056788211 5.109261727343364 6.363521125623533 Q 5.169005761001172 6.375915194458855 5.2216929789333735 6.407670147876624 Q 5.274380196865575 6.439425101294394 5.31180759956196 6.486703844164765 Q 5.351469474061114 6.536805198549786 5.369859009914211 6.596285257990808 Q 5.388248545767308 6.655765317431832 5.384704372737468 6.71653859558543 Q 5.381160199707628 6.777311873739027 5.354315294679307 6.831851502212463 Q 5.327470389650986 6.886391130685899 5.277369035265966 6.926053005185053 M 4.890679865928562 6.818934489898717 Q 4.923079707068716 6.859862356861127 4.966373172125338 6.8870010448064045 Q 5.009666637181959 6.914139732751681 5.057547132888868 6.923872698941934 Q 5.105427628595778 6.933605665132188 5.153337933002859 6.923801190050836 Q 5.20124823740994 6.9139967149694845 5.2421761043723505 6.881596873829331 Q 5.285220929970748 6.8475211788371 5.305200336843214 6.802434059822636 Q 5.32517974371568 6.757346940808171 5.325783505125105 6.708084374166141 Q 5.32638726653453 6.65882180752411 5.309482266963758 6.611367081842549 Q 5.2925772673929865 6.563912356160988 5.261853280104909 6.525101447834564 Q 5.229453438964756 6.484173580872153 5.186439282883481 6.457387719366207 Q 5.143425126802206 6.430601857860261 5.094912495680619 6.4207953742060235 Q 5.046399864559032 6.410988890551786 4.999121695566628 6.420866883097123 Q 4.951843526574224 6.430744875642459 4.910915659611814 6.463144716782613 Q 4.868576486892079 6.496661793824151 4.848317771044266 6.541396086399284 Q 4.828059055196455 6.586130378974417 4.82745529378703 6.635392945616448 Q 4.826851532377605 6.684655512258478 4.843403705509045 6.732389546915385 Q 4.859955878640486 6.780123581572292 4.890679865928562 6.818934489898717 M 5.544206320877478 5.864142044786515 L 5.3869897792456465 6.028854670402545 L 5.808862432997375 6.431527867941782 L 5.76536378511505 6.4771005311557035 L 5.343491131363321 6.074427333616466 L 5.1862745897314895 6.239139959232496 L 5.145910230884873 6.200612585393865 L 5.5038419620308625 5.825614670947884 L 5.544206320877478 5.864142044786515 M 5.868298401031657 5.329650579670064 L 6.3876847675142 5.701885454865904 L 6.35150982893883 5.752361031326883 L 6.108641837851218 5.57830190658742 L 5.887922285094249 5.886276076008759 L 6.130790276181861 6.060335200748222 L 6.094091063134384 6.111542307302838 L 5.574704696651841 5.739307432106999 L 5.611403909699318 5.688100325552383 L 5.842567419288731 5.853771058738136 L 6.0632869720457006 5.545796889316797 L 5.832123462456287 5.380126156131044 L 5.868298401031657 5.329650579670064 M 6.6729676024799645 5.067083929702505 L 6.7224193186063435 5.092932871115183 L 6.5235492370926815 5.473392041958454 L 5.957247326613179 5.177379970942311 L 6.152365142437904 4.804099275020611 L 6.201816858564283 4.829948216433288 L 6.0358833314312905 5.147396329631657 L 6.240071062533759 5.254127442561421 L 6.3847417507627755 4.977357353918622 L 6.431800641915297 5.001955540101654 L 6.287129953686281 5.278725628744453 L 6.503281809658034 5.391710517822445 L 6.6729676024799645 5.067083929702505 M 6.80952369102613 4.892189637044824 L 6.209287271559754 4.67301564053478 L 6.301896002479491 4.419394618225043 Q 6.316096007887184 4.380506061470884 6.343889111883301 4.354245951603234 Q 6.371682215879417 4.327985841735584 6.407955656067014 4.313924457132464 Q 6.4442290962546105 4.299863072529344 6.482407315289579 4.29895280261444 Q 6.520585534324547 4.298042532699535 6.555247074040211 4.310699059258566 Q 6.598362647832866 4.326442543514921 6.630386233669544 4.356819219603015 Q 6.662409819506221 4.387195895691108 6.677658625319392 4.426777285526133 Q 6.6929074311325625 4.466358675361158 6.686544068262395 4.51002499662804 L 6.971897665905402 4.447507444595086 L 6.947510700096538 4.514294313803317 L 6.674462813734048 4.574598391219166 L 6.609636702090232 4.752133106835982 L 6.831132394907402 4.833011398505885 L 6.80952369102613 4.892189637044824 M 6.557221690812887 4.732993969112569 L 6.6288391093908166 4.536860378526374 Q 6.64180433171958 4.5013534354030105 6.631929622204207 4.4680459270604915 Q 6.622054912688832 4.434738418717972 6.595600112985568 4.40879046942212 Q 6.569145313282302 4.3828425201262675 6.533638370158939 4.369877297797505 Q 6.497286023627877 4.356603379699009 6.460409231737076 4.361821350553907 Q 6.423532439846276 4.3670393214088055 6.39447825065674 4.387569277340046 Q 6.3654240614672055 4.408099233271288 6.353076230677907 4.441915369579252 L 6.283310986718372 4.6329765397192535 L 6.557221690812887 4.732993969112569 M 6.601944710640861 3.7633881483895473 Q 6.584079573390118 3.773245981367038 6.568312767670538 3.7881801816268794 Q 6.552545961950959 3.8031143818867212 6.538877487762545 3.8231249494289137 Q 6.5252090135741305 3.843135516971106 6.514371124343297 3.8670022858563193 Q 6.503533235112463 3.890869054741532 6.497283031336973 3.9189826627057345 Q 6.479118376614456 4.000687835851697 6.501810539692436 4.045838591491468 Q 6.524502702770416 4.09098934713124 6.578094267952177 4.102903798078268 Q 6.614993378405192 4.111107190533598 6.6400826211720165 4.097784563263148 Q 6.665171863938841 4.084461935992699 6.68694414786336 4.048735508061681 Q 6.708716431787878 4.013009080130664 6.736054918792895 3.95639276509448 Q 6.764955956741785 3.8927480480672445 6.795026599956297 3.8487247994744216 Q 6.825097243170809 3.8047015508815982 6.863902443543381 3.785669500964561 Q 6.902707643915952 3.7666374510475236 6.958934859844356 3.7791378585985034 Q 7.0019838220395405 3.788708483129722 7.029900572507572 3.812432417105893 Q 7.057817322975602 3.836156351082064 7.072261687437295 3.8707147123756465 Q 7.086706051898989 3.9052730736692287 7.087629392965873 3.9488111023484675 Q 7.088552734032757 3.992349131027706 7.07761487742565 4.0415479449650595 Q 7.066872339686527 4.089868208653533 7.046905408991197 4.131988829240222 Q 7.026938478295867 4.174109449826912 6.9983817486367546 4.20924953649693 Q 6.969825018977642 4.244389623166948 6.931458324415418 4.271816922493877 L 6.8882171206086245 4.22993448830794 Q 6.909499184077948 4.217148410938877 6.9300497634349485 4.197284909533242 Q 6.950600342791949 4.177421408127608 6.9692479094857696 4.151602989190742 Q 6.98789547617959 4.1257845702538765 7.001809060595602 4.094303827430707 Q 7.015722645011614 4.062823084607539 7.023535399730977 4.0276810746522855 Q 7.040137503509622 3.9530043034973734 7.022180092023544 3.905218281768005 Q 7.004222680537466 3.8574322600386366 6.950631115355705 3.845517809091609 Q 6.911974904404927 3.8369237789003106 6.884005669977955 3.8528330348718844 Q 6.856036435550982 3.8687422908434588 6.831725775656765 3.907592282034033 Q 6.807415115762548 3.946442273224607 6.779685991021563 4.004815688758555 Q 6.75029704055976 4.066507986420043 6.721886223066066 4.107212352885325 Q 6.693475405572371 4.147916719350607 6.6581847908523715 4.163581249751631 Q 6.622894176132373 4.179245780152654 6.572816811946137 4.168112604677563 Q 6.514832495519971 4.155221559390615 6.481206322405352 4.117781667808698 Q 6.447580149290735 4.08034177622678 6.438067393917115 4.02567441864292 Q 6.4285546385434955 3.971007061059059 6.443008234774315 3.9059943426418418 Q 6.452188221569566 3.8647024809444197 6.468444863087293 3.830976725110575 Q 6.48470150460502 3.79725096927673 6.507253910030334 3.7704567253140375 Q 6.529806315455648 3.743662481351345 6.559386738214965 3.722579583320475 L 6.601944710640861 3.7633881483895473" fill="#574848" fill-rule="nonzero"></path></g><g clip-path="url(#SvgjsClipPath1004)"><g clip-path="url(#SvgjsClipPath10001a7f0ad1-0109-4665-9583-2dfec4b75b19)"><path d=" M 2.0382442242147056 3.3762373603830196 C 2.0489476504360056 3.4380551077427692 2.0856451117661745 3.436234797160916 2.1393078677192205 3.4298273039127913 C 2.639674840459153 3.37026674167454 3.1475414927963223 3.6540167551738865 3.2810794770811067 4.1197978268585995 C 3.395686231314613 4.519538030633662 3.2167132949067607 4.928234162471444 2.8351761969502354 5.133565196104537 C 2.7715381390086313 5.167787035043386 2.7054972710989817 5.196620754659947 2.6365439062583644 5.217008233176709 C 2.605234564250482 5.226255410932525 2.598463008885986 5.234556027185778 2.6088023729909158 5.2665206810031275 C 2.638509841686767 5.358555584021649 2.6630476283301547 5.452337985198748 2.69195416036999 5.544664137910366 C 2.70091008843271 5.573279420257106 2.6950850945707776 5.587332217949016 2.6697463712713754 5.604661574688262 C 2.376530742746389 5.805405425655084 2.0527338964462616 5.905668132503584 1.6977005205615248 5.902173136186424 C 0.9135107218989705 5.89438220689609 0.19507054145297034 5.311445946163277 0.03444633571020393 4.544367066970146 C -0.052855759795497406 4.127588756148934 0.03153383877923793 3.7327997971565137 0.2226664498738717 3.357670192448113 C 0.4006200123558849 3.008461810425308 0.6470900651388694 2.709202750768567 0.9084866646930545 2.4210839918727705 C 0.9721975350579323 2.35082000341322 1.0402771508192592 2.284487885810473 1.10631801872891 2.216335457625872 C 1.1112692635115518 2.2416741809252745 1.0937942819257565 2.259003537664521 1.083454917820828 2.2785900795252667 C 0.9008413602492694 2.6259781509662177 0.7379599693850046 2.9815940262371483 0.6430853818587918 3.364368935389334 C 0.6134507255862144 3.4839997468287556 0.5804666978430261 3.6039218079612745 0.5883304395566341 3.7295232381091763 C 0.5653945262252781 3.7822394325596584 0.5412936141215356 3.834518752470495 0.519668324409114 3.8878174463071704 C 0.251063294950789 4.549973623562255 0.4954945998820977 5.329867489251635 1.2544913000917974 5.612306879132047 C 1.6321693396147936 5.75283485605115 2.004313634968954 5.721743951313089 2.362987632017399 5.539130393741532 C 2.5021321728942922 5.468283905895787 2.5001662374658906 5.466682032583756 2.454731285342823 5.3194553127234325 C 2.4438822342749753 5.284432537128569 2.4339797447096916 5.272564112134882 2.39145728951759 5.278825980536459 C 2.145205674004427 5.315232192173531 1.9047790523531964 5.2911312800697905 1.6780411662775057 5.183732955740425 C 1.3517686975860568 5.029152181129412 1.097798965205835 4.702879712437964 1.183135125283134 4.253408623566659 C 1.2505594292349933 3.898302435258649 1.476059504115024 3.6668317416701384 1.7974535404471053 3.5209156454287487 C 1.8784209551279556 3.4841453716753055 1.8794403290537935 3.486548181643352 1.857742226918098 3.396916088592878 C 1.9178852885425424 3.389998908381834 1.9781011625902611 3.3830089157475167 2.038244224214706 3.3760917355364723 Z M 2.3865060447349467 5.106697411916377 C 2.3770404297093077 5.07655306868088 2.3691038755724256 5.0514327826512995 2.3613129462820917 5.026239684198445 C 2.257992117656078 4.694360658914887 2.153724727527501 4.362772883324426 2.052297021906615 4.030311358654674 C 2.037734537251786 3.9826920338333838 2.0210604923220066 3.973736105770663 1.9764992892782294 3.9956526451761807 C 1.9116234201409645 4.027471674146983 1.8471116131200715 4.058999453424689 1.7898082360033183 4.103706281315015 C 1.50358260011265 4.327094795920094 1.4862532433734033 4.724723439420207 1.7539117113291642 4.938427901729826 C 1.9388552664454954 5.086091496129794 2.1538703523740494 5.119221148719531 2.3865788571582205 5.106697411916378 Z M 2.291267395092364 3.9364561450543007 C 2.280928030987436 3.9364561450543007 2.2705886668825057 3.93696583201722 2.260322115200852 3.936383332631026 C 2.2107368549511586 3.9336164605466086 2.1993781169203914 3.952183628481516 2.2164162239665415 3.9999485781493562 C 2.2439393199641686 4.077420996513047 2.264836485443849 4.157223412421511 2.2893014596639625 4.235788017134316 C 2.3712154358473767 4.499004927270353 2.453275036877339 4.762221837406392 2.536208386986591 5.025220310272608 C 2.542907129927813 5.0463359130221095 2.536645261526236 5.079101503495475 2.584410211194076 5.064393393994099 C 2.8951008213048572 4.968790682235144 3.0536862791959485 4.657736010007992 2.9408998355442963 4.358331325504703 C 2.846826184674099 4.108657526097656 2.587905207511236 3.9403152034878297 2.2914130199389118 3.936383332631025 Z" fill="#574848" transform="matrix(1,0,0,1,0,0)" fill-rule="nonzero"></path></g><g clip-path="url(#SvgjsClipPath10001a7f0ad1-0109-4665-9583-2dfec4b75b19)"><path d=" M 2.0382442242147056 3.3762373603830196 C 1.9781011625902611 3.3831545405940635 1.9178852885425415 3.3901445332283817 1.8577422269180972 3.3970617134394256 C 1.8415050565279625 3.369684242288346 1.8568684778388076 3.3088130564311604 1.7881335502680136 3.339612711476124 C 1.5430469335272374 3.449268220926988 1.327449348212491 3.5970774401735053 1.1602720243750508 3.810417840366753 C 1.040714025358903 3.9629598671260893 0.953994429239395 4.134433123936704 0.9398688191242106 4.326293859264079 C 0.912709785242954 4.693850971951968 1.0595724429869067 4.993474093725079 1.338007149587242 5.230769781175522 C 1.384752725329244 5.27059817670648 1.433318611653099 5.308387824385762 1.494990734166301 5.358482771598374 C 1.4598951461481628 5.3485074696098165 1.4419832900227227 5.344575598753013 1.4247995581300241 5.33838654277471 C 1.1138176983261463 5.225236037006687 0.9147485330946303 5.0002456490895755 0.811500516891891 4.694287846491613 C 0.6827681525432004 4.3127507485350876 0.7644636914567928 3.956406749031416 0.9780953413431375 3.6259111597900664 C 1.1532820317407328 3.354903320363694 1.3940727155083341 3.152484783661568 1.669376487907881 2.9896033927973034 C 1.7036711392700037 2.969361539127091 1.7161948760731571 2.9540709302395203 1.700758642339038 2.913805660168917 C 1.672798671801766 2.8409204244714967 1.6502996330100548 2.7658508160758517 1.627509344525247 2.6910724573733042 C 1.6157865443781092 2.6527003103078295 1.6042821815007944 2.637409701420258 1.5675119077473505 2.672141227322026 C 1.44387641302785 2.7888595418304822 1.30829968089139 2.8918891207633988 1.1830623128598587 3.007223999229647 C 0.951009119885155 3.2210012739625395 0.7449499620193211 3.454510715402726 0.5884032519799068 3.729596050532451 C 0.5805395102662991 3.6039946203845483 0.6135235380094871 3.4840725592520294 0.6431581942820646 3.3644417478126076 C 0.738032781808277 2.9816668386604213 0.900841360249268 2.626050963389492 1.0835277302441007 2.2786628919485405 C 1.0938670943490296 2.259076350087795 1.1112692635115506 2.2417469933485483 1.1063908311521826 2.2164082700491456 C 1.1803682531987154 2.141484286500049 1.2526709895099417 2.064812804792373 1.3290512215245216 1.9925100684811459 C 1.3595596268763888 1.9636763488645843 1.3629818107702738 1.9405948106866797 1.3492930751947338 1.9013489145419151 C 1.1950763627000922 1.458430943765284 1.1973335478215905 1.0176245332636034 1.3835149141335823 0.5843906147824337 C 1.4898938645371098 0.3366827508037885 1.6521927560151815 0.13557483772059695 1.900992806342939 0.013905278429498813 C 1.951379003248648 -0.01077813306043675 1.9796302234790168 -0.003424078309747973 2.0129055009153016 0.04259337319951237 C 2.1894028149318325 0.28666061601445036 2.302189258583484 0.5570859560546289 2.343837964696296 0.8543062678596934 C 2.405874149325868 1.2970058013665022 2.3477698355530996 1.7177159830445186 2.089212920506607 2.095685272260611 C 1.997323642334634 2.230024193201411 1.8918184410103962 2.3535140630743627 1.7775757488932613 2.4692130036569813 C 1.760537641847111 2.4864695479729537 1.757115457953226 2.4934595406072715 1.766508260555591 2.5177060775575626 C 1.8029144721926642 2.6117797284277597 1.839684745946108 2.7065086911074236 1.8647322195524145 2.804004525871505 C 1.8794403290537913 2.861235090564984 1.8980803094119731 2.86240008933737 1.94438901061433 2.841211674164594 C 2.1872184422336076 2.7298814789784243 2.4158494513144264 2.5944503716885126 2.634650783253235 2.441762720082628 C 2.6492132679080647 2.431641793247522 2.661227317748298 2.4151861855875647 2.6889688510157486 2.4162783719366767 C 2.667561998573149 2.491129543062499 2.634213908713591 2.558262597321262 2.5995551952350975 2.6248131521938314 C 2.496525616302181 2.822862943499509 2.363278881710493 2.996666197854896 2.186781567693963 3.1352282393455955 C 2.1657387773677343 3.1517566594288264 2.1421475522269113 3.165081332887996 2.1203766376679414 3.180808816315211 C 2.084334488147239 3.2068028514240816 2.0228079904805853 3.2096425359317733 2.011886126989464 3.252601865663519 C 2.002638949233647 3.2892265145704145 2.0281232973795986 3.3347342791167556 2.0382442242147047 3.3763101728062934 Z M 2.039482035410366 0.8935521640044584 C 2.0430498441507994 0.8114197505512216 2.0287057967657924 0.728923274981614 2.0023476995405516 0.6476646106076669 C 1.990260837277043 0.6103846498913039 1.97562554019894 0.6055790299552103 1.940821201873898 0.6244374475832142 C 1.7915557341618986 0.7051864249942422 1.6833564731765174 0.8243803618940194 1.6074131157015825 0.9740098917223898 C 1.4866901179130487 1.2118152661357513 1.464555141237708 1.4586493810351064 1.5394063123635302 1.7152403606531976 C 1.5548425460976494 1.7681749923735017 1.5696962804455754 1.7484428256662083 1.59314188073985 1.723905039022821 C 1.690128028541013 1.622331708555387 1.7825998060991786 1.5167536948078755 1.8624750344309169 1.4011275666485314 C 1.9671792990991388 1.249604913815033 2.045962341081765 1.0879613341464287 2.0394092229870924 0.8936249764277328 Z" fill="#c5b3b3" transform="matrix(1,0,0,1,0,0)" fill-rule="nonzero"></path></g><g clip-path="url(#SvgjsClipPath10001a7f0ad1-0109-4665-9583-2dfec4b75b19)"><path d=" M 3.5923525865780808 1.7005322511518202 C 3.4835708262065066 1.759219064310782 3.3764637515702383 1.8212552489403546 3.2652063688073425 1.8748451924701262 C 3.2253779732763843 1.8939948597912264 3.2171501694464064 1.9154745246570997 3.217295794292954 1.95464760837859 C 3.2183879806420665 2.264755719103179 3.2180967309489703 2.574863829827767 3.217295794292954 2.8849719405523557 C 3.216640482483487 3.115860134754673 3.0251438092724827 3.348277389845747 2.799862171662274 3.391382344424042 C 2.714671636431523 3.4076923272374504 2.633558596904124 3.39997421037039 2.572760223470212 3.3286908479850017 C 2.5134180985017833 3.2591549837581923 2.5197527793266334 3.1806631914686623 2.5485136865199207 3.1007151507136506 C 2.6166661147045214 2.9115484750474185 2.8228708974169034 2.7734961205196376 3.0226681868811607 2.790170165449417 C 3.074801881945449 2.794538910845866 3.0686856383904213 2.7696370620861077 3.0686128259671466 2.737599595845483 C 3.067593452041309 2.251722295337106 3.0677390768878565 1.7659178072520032 3.064972204803439 1.2800405067436258 C 3.064680955110343 1.2340230552343656 3.0782968782626083 1.2106502673633648 3.1183437110633885 1.1897531018836849 C 3.409229342043603 1.038012011780364 3.698804349404882 0.883940924132271 3.9888162313058055 0.7305979607169191 C 3.9733799975716866 0.8150603717149286 3.92408598701509 0.8858340471373988 3.894815392858883 0.964689901543299 C 3.864161362660467 1.0472591895361807 3.807804547046278 1.1198531755405046 3.799649555639574 1.2110143294797358 C 3.620676619231722 1.3039957940008202 3.4416308704005973 1.3968316336753566 3.262803558839294 1.4901043478895377 C 3.239794833084664 1.5021183977297716 3.2141648600921653 1.5109287009459433 3.216130795520567 1.5469708504666455 C 3.218970480028258 1.597502672218903 3.2168589197533084 1.6483985560875314 3.2168589197533084 1.7103619282938296 C 3.3694737589359187 1.6318701360043004 3.5117492340135996 1.5587664630370575 3.6540247090912814 1.4855899776465404 C 3.655772207249861 1.5129674487976195 3.6461609673776736 1.537650860287555 3.6357487908494712 1.5621158345076682 C 3.6166719359516444 1.6068226623979938 3.5916244623453384 1.6496363672831915 3.5923525865780794 1.7005322511518197 Z" fill="#c5b3b3" transform="matrix(1,0,0,1,0,0)" fill-rule="nonzero"></path></g><g clip-path="url(#SvgjsClipPath10001a7f0ad1-0109-4665-9583-2dfec4b75b19)"><path d=" M 3.5923525865780808 1.7005322511518202 C 3.5916244623453393 1.649636367283192 3.6167447483749204 1.606822662397994 3.6357487908494726 1.5621158345076687 C 3.646160967377675 1.5376508602875554 3.6557722072498624 1.51296744879762 3.6539518966680093 1.4855899776465409 C 3.78479582129165 1.4167094252291987 3.915712558338565 1.3479016852351304 4.046410858115657 1.2786570707014175 C 4.065487713013483 1.2685361438663112 4.09213705993182 1.2648227102793297 4.092428309624918 1.2353336788533005 C 4.093010809011111 1.1791953005089342 4.092573934471465 1.1229841097412931 4.092573934471465 1.0601469884557049 C 3.9890346685756293 1.1134456822923797 3.8943057058959654 1.1621571934627835 3.7995767432163015 1.2109415170564615 C 3.80780454704628 1.1197803631172303 3.8640885502371947 1.0471863771129066 3.894742580435611 0.9646170891200251 C 3.9240131745918174 0.8858340471373991 3.973307185148414 0.8149875592916548 3.988743418882533 0.7305251482936452 C 4.067526460865159 0.6879298806782698 4.146309502847786 0.6454074254861685 4.230553476575973 0.5998996609398272 C 4.231864100194906 0.6181027667583636 4.23295628654402 0.6258208836254231 4.23295628654402 0.6334661880692086 C 4.2332475362371165 1.1953596584757942 4.234558159856051 1.7573259413056543 4.233101911390569 2.31921941171224 C 4.2325194120043745 2.5394041796932583 4.065706150283306 2.7487398966064287 3.8605935539200367 2.795339847501882 C 3.682130304475104 2.8358235548423067 3.5733485441035295 2.7181586788312866 3.624535677665255 2.54311761328024 C 3.6747762497244163 2.371498731623077 3.865981673242324 2.2150976464302112 4.051871789861219 2.2281310701962833 C 4.0851470672975045 2.230461067741056 4.094539869899869 2.220849827868869 4.094394245053321 2.188157049818777 C 4.093302058704209 1.9526816729501881 4.093229246280934 1.7171334836583256 4.094467057476595 1.4816581067897372 C 4.094685494746417 1.4377522155554272 4.078739574049379 1.4458343945388572 4.051507727744848 1.4602512543471382 C 3.89874726371569 1.540927419334892 3.745404300300339 1.620584210396808 3.592206961731535 1.7005322511518206 Z" fill="#574848" transform="matrix(1,0,0,1,0,0)" fill-rule="nonzero"></path></g></g><g transform="matrix(0.114810262886499,-0.9933874387850558,0.9933874387850558,0.114810262886499,-4.888877814413215,-0.3308676140944904)"><g clip-path="url(#SvgjsClipPath1005)"><path d=" M -2.630093867923862 2.76011267620473 C -2.528604046165241 2.76011267620473 -2.4445374136307585 2.676225895946109 -2.4445374136307585 2.5745562219116263 C -2.4445374136307585 2.473066808908178 -2.528604046165241 2.3890003807512814 -2.630273720199724 2.3890003807512814 C -2.7317637463359308 2.3890003807512814 -2.8156503222169653 2.473066808908178 -2.8156503222169653 2.5745562219116263 C -2.8156503222169653 2.676225895946109 -2.731584098437655 2.76011267620473 -2.630093867923862 2.76011267620473 Z M -2.630093867923862 2.7236496710495572 C -2.7127231128945515 2.7236496710495572 -2.7790060341428275 2.6571860800150744 -2.7790060341428275 2.5745562219116263 C -2.7790060341428275 2.49192840758404 -2.7129027607928276 2.425644668825419 -2.630273720199724 2.425644668825419 C -2.5476438620962756 2.425644668825419 -2.481182314837655 2.49192840758404 -2.481002462561793 2.5745562219116263 C -2.481002462561793 2.6571860800150744 -2.5474640098204135 2.7236496710495572 -2.630093867923862 2.7236496710495572 Z M -2.6299140156479996 2.6449704316874882 C -2.5911149746824824 2.6449704316874882 -2.5594998058721377 2.613357306653006 -2.5594998058721377 2.574198561135764 C -2.5594998058721377 2.535397476394385 -2.5911149746824824 2.50378230758404 -2.6299140156479996 2.50378230758404 C -2.6690727611652414 2.50378230758404 -2.700687929975586 2.535397476394385 -2.700687929975586 2.574198561135764 C -2.700687929975586 2.613357306653006 -2.6690727611652414 2.6449704316874882 -2.6299140156479996 2.6449704316874882 Z" fill="#574848" transform="matrix(1,0,0,1,0,0)" fill-rule="nonzero"></path></g></g><g transform="matrix(-0.114810262886499,-0.9933874387850558,-0.9933874387850558,0.114810262886499,10.21265898602905,9.100317328482898)"><g clip-path="url(#SvgjsClipPath1006)"><path d=" M 6.8638704951770295 2.76011267620473 C 6.965360316935651 2.76011267620473 7.049426949470133 2.676225895946109 7.049426949470133 2.5745562219116263 C 7.049426949470133 2.473066808908178 6.965360316935651 2.3890003807512814 6.863690642901168 2.3890003807512814 C 6.762200616764961 2.3890003807512814 6.678314040883926 2.473066808908178 6.678314040883926 2.5745562219116263 C 6.678314040883926 2.676225895946109 6.7623802646632365 2.76011267620473 6.8638704951770295 2.76011267620473 Z M 6.8638704951770295 2.7236496710495572 C 6.78124125020634 2.7236496710495572 6.7149583289580645 2.6571860800150744 6.7149583289580645 2.5745562219116263 C 6.7149583289580645 2.49192840758404 6.781061602308064 2.425644668825419 6.863690642901168 2.425644668825419 C 6.946320501004616 2.425644668825419 7.012782048263237 2.49192840758404 7.012961900539099 2.5745562219116263 C 7.012961900539099 2.6571860800150744 6.946500353280478 2.7236496710495572 6.8638704951770295 2.7236496710495572 Z M 6.864050347452892 2.6449704316874882 C 6.902849388418409 2.6449704316874882 6.934464557228754 2.613357306653006 6.934464557228754 2.574198561135764 C 6.934464557228754 2.535397476394385 6.902849388418409 2.50378230758404 6.864050347452892 2.50378230758404 C 6.824891601935651 2.50378230758404 6.793276433125306 2.535397476394385 6.793276433125306 2.574198561135764 C 6.793276433125306 2.613357306653006 6.824891601935651 2.6449704316874882 6.864050347452892 2.6449704316874882 Z" fill="#574848" transform="matrix(1,0,0,1,0,0)" fill-rule="nonzero"></path></g></g></g><defs><clipPath id="SvgjsClipPath1004"><path d=" M 0 0 h 4.233776627253168 v 5.902261446489818 h -4.233776627253168 Z"></path></clipPath><clipPath id="SvgjsClipPath10001a7f0ad1-0109-4665-9583-2dfec4b75b19"><path d=" M 0 0 L 4.233776627253168 0 L 4.233776627253168 5.902261446489818 L 0 5.902261446489818 Z"></path></clipPath><clipPath id="SvgjsClipPath1005"><path d=" M -2.916222488613517 2.2814440191012815 h 0.5722572413793103 v 0.592695 h -0.5722572413793103 Z"></path></clipPath><clipPath id="SvgjsClipPath1006"><path d=" M 6.577741874487375 2.2814440191012815 h 0.5722572413793103 v 0.592695 h -0.5722572413793103 Z"></path></clipPath></defs></svg>